G04 #@! TF.FileFunction,Soldermask,Top*
%FSLAX46Y46*%
G04 Gerber Fmt 4.6, Leading zero omitted, Abs format (unit mm)*
G04 Created by KiCad (PCBNEW (2014-11-19 BZR 5293)-product) date Mo 24 Nov 2014 23:54:54 CET*
%MOMM*%
G01*
G04 APERTURE LIST*
%ADD10C,0.100000*%
%ADD11C,0.381000*%
%ADD12O,1.800860X3.500120*%
%ADD13O,3.500120X1.800860*%
%ADD14R,0.599440X0.398780*%
%ADD15R,0.398780X0.599440*%
%ADD16R,0.635000X1.143000*%
%ADD17R,2.032000X1.524000*%
%ADD18R,1.998980X0.449580*%
%ADD19R,0.449580X1.998980*%
%ADD20R,1.450000X0.450000*%
%ADD21R,2.540000X1.270000*%
%ADD22R,1.397000X0.889000*%
%ADD23R,0.889000X1.397000*%
%ADD24C,1.600200*%
%ADD25R,1.300480X0.800100*%
%ADD26R,1.500000X0.600000*%
%ADD27R,1.270000X0.381000*%
%ADD28R,1.570000X1.890000*%
%ADD29R,1.270000X0.406400*%
%ADD30R,1.500000X1.500000*%
%ADD31C,1.800000*%
%ADD32R,7.000000X10.000000*%
%ADD33R,1.143000X0.635000*%
%ADD34R,1.800000X0.600000*%
%ADD35C,4.000000*%
%ADD36R,11.000000X10.000000*%
%ADD37C,3.500120*%
G04 APERTURE END LIST*
D10*
D11*
X62484000Y-109855000D02*
X62484000Y-29855160D01*
X62484000Y-29855160D02*
X162483800Y-29855160D01*
X162483800Y-29855160D02*
X162483800Y-109855000D01*
X162483800Y-109855000D02*
X62484000Y-109855000D01*
D12*
X73152000Y-46482000D03*
X75692000Y-46482000D03*
X78232000Y-46482000D03*
X144526000Y-89408000D03*
X141986000Y-89408000D03*
X139446000Y-89408000D03*
D13*
X106426000Y-91186000D03*
X106426000Y-88646000D03*
X106426000Y-86106000D03*
X111506000Y-63500000D03*
X111506000Y-60960000D03*
X111506000Y-58420000D03*
X111506000Y-55880000D03*
X101854000Y-63500000D03*
X101854000Y-60960000D03*
X101854000Y-58420000D03*
X101854000Y-55880000D03*
D14*
X102108000Y-78173580D03*
X102108000Y-77274420D03*
X87376000Y-75887580D03*
X87376000Y-74988420D03*
X87376000Y-77665580D03*
X87376000Y-76766420D03*
D15*
X101150420Y-76454000D03*
X102049580Y-76454000D03*
D16*
X88392000Y-41910000D03*
X86868000Y-41910000D03*
D15*
X123248420Y-71120000D03*
X124147580Y-71120000D03*
D14*
X134366000Y-74988420D03*
X134366000Y-75887580D03*
X147320000Y-74861420D03*
X147320000Y-75760580D03*
D16*
X151892000Y-81788000D03*
X150368000Y-81788000D03*
D14*
X155702000Y-78427580D03*
X155702000Y-77528420D03*
X156972000Y-78427580D03*
X156972000Y-77528420D03*
D17*
X139446000Y-60833000D03*
X139446000Y-64135000D03*
D14*
X136906000Y-60256420D03*
X136906000Y-61155580D03*
D15*
X145229580Y-62738000D03*
X144330420Y-62738000D03*
D16*
X152654000Y-92456000D03*
X154178000Y-92456000D03*
D17*
X149098000Y-59817000D03*
X149098000Y-63119000D03*
D14*
X149860000Y-87942420D03*
X149860000Y-88841580D03*
D15*
X153474420Y-85090000D03*
X154373580Y-85090000D03*
D16*
X101854000Y-68834000D03*
X103378000Y-68834000D03*
D18*
X89672160Y-79103220D03*
X89672160Y-78303120D03*
X89672160Y-77503020D03*
X89672160Y-76702920D03*
X89672160Y-75902820D03*
X89672160Y-75102720D03*
X89672160Y-74302620D03*
X89672160Y-73502520D03*
X99237800Y-73507600D03*
X99237800Y-79121000D03*
X99237800Y-78308200D03*
X99237800Y-77495400D03*
X99237800Y-76708000D03*
X99237800Y-75895200D03*
X99237800Y-75107800D03*
X99237800Y-74295000D03*
D19*
X91663520Y-71501000D03*
X92461080Y-71501000D03*
X93263720Y-71501000D03*
X94061280Y-71501000D03*
X94863920Y-71501000D03*
X95661480Y-71501000D03*
X96464120Y-71501000D03*
X97261680Y-71501000D03*
X91668600Y-81102200D03*
X92456000Y-81102200D03*
X93268800Y-81102200D03*
X94056200Y-81102200D03*
X94843600Y-81102200D03*
X95656400Y-81102200D03*
X96469200Y-81102200D03*
X97282000Y-81102200D03*
D20*
X153330000Y-79461000D03*
X153330000Y-78811000D03*
X153330000Y-78161000D03*
X153330000Y-77511000D03*
X148930000Y-77511000D03*
X148930000Y-78161000D03*
X148930000Y-78811000D03*
X148930000Y-79461000D03*
D21*
X107442000Y-79502000D03*
X112522000Y-78232000D03*
X107442000Y-76962000D03*
X112522000Y-75692000D03*
X107442000Y-74422000D03*
X112522000Y-73152000D03*
D22*
X103886000Y-77914500D03*
X103886000Y-76009500D03*
X94742000Y-85534500D03*
X94742000Y-83629500D03*
X92964000Y-84137500D03*
X92964000Y-86042500D03*
X96520000Y-86296500D03*
X96520000Y-84391500D03*
X90932000Y-86042500D03*
X90932000Y-84137500D03*
D23*
X100520500Y-68834000D03*
X98615500Y-68834000D03*
D22*
X86106000Y-66865500D03*
X86106000Y-68770500D03*
X86106000Y-70167500D03*
X86106000Y-72072500D03*
X119380000Y-72453500D03*
X119380000Y-74358500D03*
X119380000Y-76009500D03*
X119380000Y-77914500D03*
X157226000Y-83756500D03*
X157226000Y-81851500D03*
X156464000Y-90487500D03*
X156464000Y-92392500D03*
D23*
X145478500Y-60960000D03*
X143573500Y-60960000D03*
X143573500Y-64262000D03*
X145478500Y-64262000D03*
X152463500Y-90424000D03*
X154368500Y-90424000D03*
D24*
X85558000Y-88138000D03*
X80558000Y-88138000D03*
D25*
X94030800Y-91186000D03*
X94030800Y-88646000D03*
X100533200Y-88646000D03*
X100533200Y-91186000D03*
D26*
X136320000Y-74676000D03*
X136320000Y-75946000D03*
X136320000Y-77216000D03*
X136320000Y-78486000D03*
X136320000Y-79756000D03*
X136320000Y-81026000D03*
X136320000Y-82296000D03*
X136320000Y-83566000D03*
X145620000Y-83566000D03*
X145620000Y-82296000D03*
X145620000Y-81026000D03*
X145620000Y-79756000D03*
X145620000Y-78486000D03*
X145620000Y-77216000D03*
X145620000Y-75946000D03*
X145620000Y-74676000D03*
D27*
X146685000Y-59014360D03*
X146685000Y-58364120D03*
X146685000Y-57713880D03*
X146685000Y-57063640D03*
X142367000Y-57063640D03*
X142367000Y-57713880D03*
X142367000Y-58364120D03*
X142367000Y-59014360D03*
D28*
X144526000Y-58039000D03*
D29*
X155892500Y-88353900D03*
X155892500Y-87706200D03*
X155892500Y-87045800D03*
X155892500Y-86398100D03*
X151447500Y-86398100D03*
X151447500Y-87045800D03*
X151447500Y-87706200D03*
X151447500Y-88353900D03*
D10*
G36*
X83055460Y-46996350D02*
X83055460Y-44697650D01*
X86657180Y-45297090D01*
X86657180Y-46396910D01*
X83055460Y-46996350D01*
X83055460Y-46996350D01*
G37*
G36*
X92458540Y-44697650D02*
X92458540Y-46996350D01*
X88856820Y-46396910D01*
X88856820Y-45297090D01*
X92458540Y-44697650D01*
X92458540Y-44697650D01*
G37*
D30*
X119380000Y-70612000D03*
D21*
X69088000Y-76327000D03*
X74168000Y-77597000D03*
X69088000Y-78867000D03*
X74168000Y-80137000D03*
X69088000Y-81407000D03*
X74168000Y-82677000D03*
X69088000Y-83947000D03*
X74168000Y-85217000D03*
X69088000Y-86487000D03*
X74168000Y-75057000D03*
D31*
X122682000Y-68707000D03*
X125222000Y-68707000D03*
X127762000Y-68707000D03*
D32*
X120142000Y-47244000D03*
X130302000Y-47244000D03*
D31*
X136652000Y-68707000D03*
X139192000Y-68707000D03*
X144272000Y-68707000D03*
X146812000Y-68707000D03*
X149352000Y-68707000D03*
D33*
X125222000Y-73914000D03*
X125222000Y-72390000D03*
D22*
X127762000Y-73469500D03*
X127762000Y-71564500D03*
D34*
X86868000Y-81214000D03*
X86868000Y-80264000D03*
X86868000Y-79314000D03*
D33*
X84328000Y-70358000D03*
X84328000Y-71882000D03*
D16*
X117348000Y-72898000D03*
X115824000Y-72898000D03*
D22*
X106807000Y-57086500D03*
X106807000Y-58991500D03*
X116332000Y-60007500D03*
X116332000Y-61912500D03*
X95758000Y-63944500D03*
X95758000Y-65849500D03*
X96393000Y-57721500D03*
X96393000Y-59626500D03*
D35*
X67637660Y-56642000D03*
X92636340Y-56642000D03*
D36*
X138557000Y-47244000D03*
X149352000Y-47244000D03*
X100711000Y-47244000D03*
X111506000Y-47244000D03*
D37*
X67485260Y-104853740D03*
X67485260Y-34853880D03*
X157485080Y-34853880D03*
X157485080Y-104853740D03*
M02*
