M48
;DRILL file {kicad (2014-11-19 BZR 5293)-product} date Mo 24 Nov 2014 23:50:05 CET
;FORMAT={-:-/ absolute / metric / decimal}
FMAT,2
METRIC,TZ
T1C0.762
T2C0.800
T3C0.900
T4C1.199
T5C2.000
T6C3.500
T7C5.000
%
G90
G05
M71
T1
X136.652Y-68.707
X139.192Y-68.707
X144.272Y-68.707
X146.812Y-68.707
X149.352Y-68.707
T2
X66.04Y-78.486
X66.484Y-81.024
X77.47Y-74.549
X78.486Y-82.55
X80.558Y-88.138
X81.026Y-71.374
X82.55Y-77.47
X84.836Y-49.784
X85.558Y-88.138
X88.392Y-83.058
X90.17Y-66.04
X90.678Y-87.884
X91.948Y-92.964
X97.79Y-63.5
X99.822Y-86.614
X101.324Y-74.232
X101.346Y-71.755
X102.086Y-79.979
X102.489Y-82.088
X103.759Y-74.041
X104.785Y-71.264
X111.252Y-67.564
X115.443Y-76.962
X119.38Y-70.612
X119.43Y-81.882
X121.666Y-77.216
X122.428Y-85.598
X123.698Y-78.74
X123.698Y-82.55
X134.112Y-82.042
X134.366Y-73.152
X136.652Y-58.166
X139.446Y-57.404
X141.732Y-62.484
X143.51Y-71.12
X148.082Y-82.042
X148.336Y-85.344
X149.352Y-74.422
X149.606Y-56.896
X149.86Y-90.932
X150.838Y-71.569
X151.384Y-84.582
X151.638Y-58.674
X152.4Y-68.58
X152.955Y-83.105
X155.194Y-83.312
X155.448Y-75.946
X158.496Y-88.646
T3
X122.682Y-68.707
X125.222Y-68.707
X127.762Y-68.707
T4
X73.152Y-46.482
X75.692Y-46.482
X78.232Y-46.482
X101.854Y-55.88
X101.854Y-58.42
X101.854Y-60.96
X101.854Y-63.5
X106.426Y-86.106
X106.426Y-88.646
X106.426Y-91.186
X111.506Y-55.88
X111.506Y-58.42
X111.506Y-60.96
X111.506Y-63.5
X139.446Y-89.408
X141.986Y-89.408
X144.526Y-89.408
T5
X67.638Y-56.642
X92.636Y-56.642
T6
X67.485Y-34.854
X67.485Y-104.854
X157.485Y-34.854
X157.485Y-104.854
T7
X100.711Y-47.244
X111.506Y-47.244
X138.557Y-47.244
X149.352Y-47.244
T5
X118.642Y-47.244G85X121.642Y-47.244
G05
X128.802Y-47.244G85X131.802Y-47.244
G05
T0
M30
