G04 #@! TF.FileFunction,Soldermask,Bot*
%FSLAX46Y46*%
G04 Gerber Fmt 4.6, Leading zero omitted, Abs format (unit mm)*
G04 Created by KiCad (PCBNEW (2014-11-19 BZR 5293)-product) date Mo 24 Nov 2014 23:54:54 CET*
%MOMM*%
G01*
G04 APERTURE LIST*
%ADD10C,0.100000*%
%ADD11C,0.381000*%
%ADD12O,1.800860X3.500120*%
%ADD13O,3.500120X1.800860*%
%ADD14C,1.600200*%
%ADD15R,1.500000X1.500000*%
%ADD16C,1.800000*%
%ADD17R,7.000000X10.000000*%
%ADD18R,0.800100X1.000760*%
%ADD19C,4.000000*%
%ADD20R,11.000000X10.000000*%
%ADD21C,3.500120*%
G04 APERTURE END LIST*
D10*
D11*
X62484000Y-109855000D02*
X62484000Y-29855160D01*
X62484000Y-29855160D02*
X162483800Y-29855160D01*
X162483800Y-29855160D02*
X162483800Y-109855000D01*
X162483800Y-109855000D02*
X62484000Y-109855000D01*
D12*
X73152000Y-46482000D03*
X75692000Y-46482000D03*
X78232000Y-46482000D03*
X144526000Y-89408000D03*
X141986000Y-89408000D03*
X139446000Y-89408000D03*
D13*
X106426000Y-91186000D03*
X106426000Y-88646000D03*
X106426000Y-86106000D03*
X111506000Y-63500000D03*
X111506000Y-60960000D03*
X111506000Y-58420000D03*
X111506000Y-55880000D03*
X101854000Y-63500000D03*
X101854000Y-60960000D03*
X101854000Y-58420000D03*
X101854000Y-55880000D03*
D14*
X85558000Y-88138000D03*
X80558000Y-88138000D03*
D15*
X119380000Y-70612000D03*
D16*
X122682000Y-68707000D03*
X125222000Y-68707000D03*
X127762000Y-68707000D03*
D17*
X120142000Y-47244000D03*
X130302000Y-47244000D03*
D16*
X136652000Y-68707000D03*
X139192000Y-68707000D03*
X144272000Y-68707000D03*
X146812000Y-68707000D03*
X149352000Y-68707000D03*
D18*
X106299000Y-78275180D03*
X105346500Y-80474820D03*
X107251500Y-80474820D03*
D19*
X67637660Y-56642000D03*
X92636340Y-56642000D03*
D20*
X138557000Y-47244000D03*
X149352000Y-47244000D03*
X100711000Y-47244000D03*
X111506000Y-47244000D03*
D21*
X67485260Y-104853740D03*
X67485260Y-34853880D03*
X157485080Y-34853880D03*
X157485080Y-104853740D03*
M02*
